<svg width="386" height="500" viewBox="0 0 386 500" fill="none" xmlns="http://www.w3.org/2000/svg">
<rect width="386" height="500" rx="40" fill="#A43F3F"/>
<path d="M139.29 158.818V377H112.869V186.517H111.591L58.3239 221.886V195.04L112.869 158.818H139.29ZM273.203 379.983C257.152 379.983 243.48 375.615 232.188 366.879C220.895 358.072 212.266 345.324 206.3 328.634C200.334 311.872 197.351 291.631 197.351 267.909C197.351 244.33 200.334 224.195 206.3 207.504C212.337 190.743 221.001 177.959 232.294 169.152C243.658 160.274 257.294 155.835 273.203 155.835C289.112 155.835 302.713 160.274 314.006 169.152C325.369 177.959 334.034 190.743 340 207.504C346.037 224.195 349.055 244.33 349.055 267.909C349.055 291.631 346.072 311.872 340.107 328.634C334.141 345.324 325.511 358.072 314.219 366.879C302.926 375.615 289.254 379.983 273.203 379.983ZM273.203 356.545C289.112 356.545 301.47 348.875 310.277 333.534C319.084 318.193 323.487 296.318 323.487 267.909C323.487 249.017 321.463 232.93 317.415 219.649C313.438 206.368 307.685 196.247 300.156 189.287C292.699 182.327 283.714 178.847 273.203 178.847C257.436 178.847 245.114 186.624 236.236 202.178C227.358 217.661 222.919 239.571 222.919 267.909C222.919 286.801 224.908 302.852 228.885 316.062C232.862 329.273 238.58 339.322 246.037 346.212C253.565 353.101 262.621 356.545 273.203 356.545Z" fill="white"/>
</svg>
