<svg width="386" height="500" viewBox="0 0 386 500" fill="none" xmlns="http://www.w3.org/2000/svg">
<rect width="386" height="500" rx="40" fill="#A43F3F"/>
<path d="M139.29 158.818V377H112.869V186.517H111.591L58.3239 221.886V195.04L112.869 158.818H139.29ZM202.038 377V357.824L274.055 278.989C282.507 269.756 289.467 261.73 294.936 254.912C300.405 248.023 304.453 241.56 307.081 235.523C309.78 229.415 311.129 223.023 311.129 216.347C311.129 208.676 309.283 202.036 305.589 196.425C301.967 190.814 296.996 186.482 290.675 183.428C284.354 180.374 277.251 178.847 269.368 178.847C260.987 178.847 253.672 180.587 247.422 184.067C241.243 187.476 236.449 192.27 233.04 198.449C229.702 204.628 228.033 211.872 228.033 220.182H202.891C202.891 207.398 205.838 196.176 211.733 186.517C217.628 176.858 225.653 169.33 235.81 163.932C246.037 158.534 257.507 155.835 270.22 155.835C283.004 155.835 294.332 158.534 304.205 163.932C314.077 169.33 321.818 176.609 327.429 185.771C333.04 194.933 335.845 205.125 335.845 216.347C335.845 224.372 334.389 232.22 331.477 239.891C328.636 247.49 323.665 255.977 316.562 265.352C309.531 274.656 299.766 286.02 287.266 299.443L238.26 351.858V353.562H339.68V377H202.038Z" fill="white"/>
</svg>
