<svg width="386" height="500" viewBox="0 0 386 500" fill="none" xmlns="http://www.w3.org/2000/svg">
<rect width="386" height="500" rx="40" fill="#A43F3F"/>
<path d="M139.29 158.818V377H112.869V186.517H111.591L58.3239 221.886V195.04L112.869 158.818H139.29ZM275.76 379.983C261.697 379.983 249.162 377.568 238.153 372.739C227.216 367.909 218.516 361.197 212.053 352.604C205.661 343.939 202.18 333.889 201.612 322.455H228.459C229.027 329.486 231.442 335.558 235.703 340.672C239.964 345.714 245.54 349.621 252.429 352.391C259.318 355.161 266.953 356.545 275.334 356.545C284.709 356.545 293.018 354.912 300.263 351.645C307.507 348.378 313.189 343.832 317.308 338.009C321.428 332.185 323.487 325.438 323.487 317.767C323.487 309.741 321.499 302.675 317.521 296.567C313.544 290.388 307.72 285.558 300.05 282.078C292.379 278.598 283.004 276.858 271.925 276.858H254.453V253.42H271.925C280.589 253.42 288.189 251.858 294.723 248.733C301.328 245.608 306.477 241.205 310.17 235.523C313.935 229.841 315.817 223.165 315.817 215.494C315.817 208.108 314.183 201.68 310.916 196.212C307.649 190.743 303.033 186.482 297.067 183.428C291.172 180.374 284.212 178.847 276.186 178.847C268.658 178.847 261.555 180.232 254.879 183.001C248.274 185.7 242.876 189.642 238.686 194.827C234.496 199.94 232.223 206.119 231.868 213.364H206.3C206.726 201.929 210.17 191.915 216.634 183.321C223.097 174.656 231.548 167.909 241.989 163.08C252.5 158.25 264.041 155.835 276.612 155.835C290.107 155.835 301.683 158.57 311.342 164.038C321.001 169.436 328.423 176.574 333.608 185.452C338.793 194.33 341.385 203.918 341.385 214.216C341.385 226.503 338.153 236.979 331.69 245.643C325.298 254.308 316.598 260.31 305.589 263.648V265.352C319.368 267.625 330.128 273.484 337.869 282.93C345.611 292.305 349.482 303.918 349.482 317.767C349.482 329.628 346.25 340.281 339.787 349.727C333.395 359.102 324.659 366.489 313.58 371.886C302.5 377.284 289.893 379.983 275.76 379.983Z" fill="white"/>
</svg>
