<svg width="386" height="500" viewBox="0 0 386 500" fill="none" xmlns="http://www.w3.org/2000/svg">
<rect width="386" height="500" rx="40" fill="#A43F3F"/>
<path d="M189.045 146.835C197.994 146.906 206.943 148.611 215.892 151.949C224.841 155.287 233.009 160.827 240.395 168.568C247.781 176.239 253.712 186.714 258.186 199.996C262.661 213.277 264.898 229.932 264.898 249.96C264.898 269.349 263.051 286.572 259.358 301.629C255.736 316.615 250.48 329.257 243.591 339.555C236.773 349.854 228.463 357.666 218.662 362.993C208.932 368.32 197.923 370.983 185.636 370.983C173.42 370.983 162.518 368.568 152.93 363.739C143.413 358.838 135.601 352.055 129.493 343.391C123.456 334.655 119.585 324.534 117.881 313.028H143.875C146.219 323.043 150.871 331.317 157.831 337.851C164.862 344.314 174.131 347.545 185.636 347.545C202.469 347.545 215.75 340.195 225.48 325.493C235.281 310.791 240.182 290.017 240.182 263.17H238.477C234.5 269.136 229.777 274.286 224.308 278.618C218.839 282.95 212.767 286.288 206.091 288.632C199.415 290.976 192.313 292.148 184.784 292.148C172.284 292.148 160.814 289.058 150.374 282.879C140.004 276.629 131.695 268.071 125.445 257.205C119.266 246.267 116.176 233.767 116.176 219.705C116.176 206.352 119.159 194.136 125.125 183.057C131.162 171.906 139.614 163.028 150.48 156.423C161.418 149.818 174.273 146.622 189.045 146.835ZM189.045 170.273C180.097 170.273 172.036 172.51 164.862 176.984C157.76 181.388 152.114 187.354 147.923 194.882C143.804 202.339 141.744 210.614 141.744 219.705C141.744 228.795 143.733 237.07 147.71 244.527C151.759 251.913 157.263 257.808 164.223 262.212C171.254 266.544 179.244 268.71 188.193 268.71C194.94 268.71 201.226 267.396 207.05 264.768C212.874 262.07 217.952 258.412 222.284 253.795C226.688 249.108 230.132 243.817 232.618 237.922C235.104 231.956 236.347 225.741 236.347 219.278C236.347 210.756 234.287 202.766 230.168 195.308C226.119 187.851 220.509 181.814 213.335 177.197C206.233 172.581 198.136 170.273 189.045 170.273Z" fill="white"/>
</svg>
