<svg width="386" height="500" viewBox="0 0 386 500" fill="none" xmlns="http://www.w3.org/2000/svg">
<rect width="386" height="500" rx="40" fill="#A43F3F"/>
<path d="M139.29 158.818V377H112.869V186.517H111.591L58.3239 221.886V195.04L112.869 158.818H139.29ZM270.22 379.983C257.72 379.983 246.463 377.497 236.449 372.526C226.435 367.554 218.409 360.736 212.372 352.071C206.335 343.406 203.033 333.534 202.464 322.455H228.033C229.027 332.327 233.501 340.494 241.456 346.957C249.482 353.349 259.07 356.545 270.22 356.545C279.169 356.545 287.124 354.45 294.084 350.26C301.115 346.07 306.619 340.317 310.597 333.001C314.645 325.615 316.669 317.27 316.669 307.966C316.669 298.449 314.574 289.962 310.384 282.504C306.264 274.976 300.582 269.045 293.338 264.713C286.094 260.381 277.82 258.179 268.516 258.108C261.839 258.037 254.986 259.067 247.955 261.197C240.923 263.257 235.135 265.92 230.589 269.188L205.874 266.205L219.084 158.818H332.436V182.256H241.243L233.572 246.602H234.851C239.325 243.051 244.936 240.104 251.683 237.76C258.43 235.416 265.462 234.244 272.777 234.244C286.129 234.244 298.026 237.44 308.466 243.832C318.977 250.153 327.216 258.818 333.182 269.827C339.219 280.835 342.237 293.406 342.237 307.54C342.237 321.46 339.112 333.889 332.862 344.827C326.683 355.693 318.161 364.287 307.294 370.608C296.428 376.858 284.07 379.983 270.22 379.983Z" fill="white"/>
</svg>
