<svg width="386" height="500" viewBox="0 0 386 500" fill="none" xmlns="http://www.w3.org/2000/svg">
<rect width="386" height="500" rx="40" fill="#A43F3F"/>
<path d="M194.307 361.983C180.244 361.983 167.709 359.568 156.7 354.739C145.763 349.909 137.063 343.197 130.599 334.604C124.207 325.939 120.727 315.889 120.159 304.455H147.006C147.574 311.486 149.989 317.558 154.25 322.672C158.511 327.714 164.087 331.621 170.976 334.391C177.865 337.161 185.5 338.545 193.881 338.545C203.256 338.545 211.565 336.912 218.81 333.645C226.054 330.378 231.736 325.832 235.855 320.009C239.974 314.185 242.034 307.438 242.034 299.767C242.034 291.741 240.045 284.675 236.068 278.567C232.091 272.388 226.267 267.558 218.597 264.078C210.926 260.598 201.551 258.858 190.472 258.858H173V235.42H190.472C199.136 235.42 206.736 233.858 213.27 230.733C219.875 227.608 225.024 223.205 228.717 217.523C232.482 211.841 234.364 205.165 234.364 197.494C234.364 190.108 232.73 183.68 229.463 178.212C226.196 172.743 221.58 168.482 215.614 165.428C209.719 162.374 202.759 160.847 194.733 160.847C187.205 160.847 180.102 162.232 173.426 165.001C166.821 167.7 161.423 171.642 157.233 176.827C153.043 181.94 150.77 188.119 150.415 195.364H124.847C125.273 183.929 128.717 173.915 135.18 165.321C141.643 156.656 150.095 149.909 160.536 145.08C171.047 140.25 182.588 137.835 195.159 137.835C208.653 137.835 220.23 140.57 229.889 146.038C239.548 151.436 246.97 158.574 252.155 167.452C257.339 176.33 259.932 185.918 259.932 196.216C259.932 208.503 256.7 218.979 250.237 227.643C243.845 236.308 235.145 242.31 224.136 245.648V247.352C237.915 249.625 248.675 255.484 256.416 264.93C264.158 274.305 268.028 285.918 268.028 299.767C268.028 311.628 264.797 322.281 258.334 331.727C251.942 341.102 243.206 348.489 232.126 353.886C221.047 359.284 208.44 361.983 194.307 361.983Z" fill="white"/>
</svg>
