<svg width="386" height="500" viewBox="0 0 386 500" fill="none" xmlns="http://www.w3.org/2000/svg">
<rect width="386" height="500" rx="40" fill="#A43F3F"/>
<path d="M120.585 359V339.824L192.602 260.989C201.054 251.756 208.014 243.73 213.483 236.912C218.952 230.023 223 223.56 225.628 217.523C228.327 211.415 229.676 205.023 229.676 198.347C229.676 190.676 227.83 184.036 224.136 178.425C220.514 172.814 215.543 168.482 209.222 165.428C202.901 162.374 195.798 160.847 187.915 160.847C179.534 160.847 172.219 162.587 165.969 166.067C159.79 169.476 154.996 174.27 151.587 180.449C148.249 186.628 146.58 193.872 146.58 202.182H121.438C121.438 189.398 124.385 178.176 130.28 168.517C136.175 158.858 144.2 151.33 154.357 145.932C164.584 140.534 176.054 137.835 188.767 137.835C201.551 137.835 212.879 140.534 222.751 145.932C232.624 151.33 240.365 158.609 245.976 167.771C251.587 176.933 254.392 187.125 254.392 198.347C254.392 206.372 252.936 214.22 250.024 221.891C247.183 229.49 242.212 237.977 235.109 247.352C228.078 256.656 218.312 268.02 205.812 281.443L156.807 333.858V335.562H258.227V359H120.585Z" fill="white"/>
</svg>
