<svg width="386" height="500" viewBox="0 0 386 500" fill="none" xmlns="http://www.w3.org/2000/svg">
<rect width="386" height="500" rx="40" fill="#A43F3F"/>
<path d="M187.767 351.983C175.267 351.983 164.01 349.497 153.996 344.526C143.982 339.554 135.956 332.736 129.919 324.071C123.882 315.406 120.58 305.534 120.011 294.455H145.58C146.574 304.327 151.048 312.494 159.003 318.957C167.028 325.349 176.616 328.545 187.767 328.545C196.716 328.545 204.67 326.45 211.631 322.26C218.662 318.07 224.166 312.317 228.143 305.001C232.192 297.615 234.216 289.27 234.216 279.966C234.216 270.449 232.121 261.962 227.93 254.504C223.811 246.976 218.129 241.045 210.885 236.713C203.641 232.381 195.366 230.179 186.062 230.108C179.386 230.037 172.533 231.067 165.501 233.197C158.47 235.257 152.682 237.92 148.136 241.188L123.42 238.205L136.631 130.818H249.983V154.256H158.79L151.119 218.602H152.398C156.872 215.051 162.483 212.104 169.23 209.76C175.977 207.416 183.009 206.244 190.324 206.244C203.676 206.244 215.572 209.44 226.013 215.832C236.524 222.153 244.763 230.818 250.729 241.827C256.766 252.835 259.784 265.406 259.784 279.54C259.784 293.46 256.659 305.889 250.409 316.827C244.23 327.693 235.707 336.287 224.841 342.608C213.974 348.858 201.616 351.983 187.767 351.983Z" fill="white"/>
</svg>
