<svg width="386" height="500" viewBox="0 0 386 500" fill="none" xmlns="http://www.w3.org/2000/svg">
<rect width="386" height="500" rx="40" fill="#A43F3F"/>
<path d="M188.028 359.983C179.08 359.841 170.131 358.136 161.182 354.869C152.233 351.602 144.065 346.098 136.679 338.357C129.293 330.544 123.362 319.997 118.888 306.716C114.413 293.364 112.176 276.602 112.176 256.432C112.176 237.114 113.987 219.997 117.609 205.082C121.232 190.097 126.487 177.49 133.376 167.263C140.266 156.964 148.575 149.152 158.305 143.825C168.107 138.499 179.151 135.835 191.438 135.835C203.653 135.835 214.52 138.286 224.037 143.186C233.625 148.016 241.438 154.763 247.474 163.428C253.511 172.092 257.418 182.071 259.193 193.364H233.199C230.784 183.562 226.097 175.43 219.136 168.967C212.176 162.504 202.943 159.273 191.438 159.273C174.534 159.273 161.217 166.624 151.487 181.325C141.828 196.027 136.963 216.659 136.892 243.222H138.597C142.574 237.185 147.297 232.036 152.766 227.774C158.305 223.442 164.413 220.104 171.089 217.76C177.766 215.416 184.832 214.244 192.29 214.244C204.79 214.244 216.224 217.369 226.594 223.619C236.963 229.798 245.273 238.357 251.523 249.294C257.773 260.161 260.898 272.625 260.898 286.688C260.898 300.182 257.879 312.54 251.842 323.761C245.805 334.912 237.318 343.79 226.381 350.395C215.514 356.929 202.73 360.125 188.028 359.983ZM188.028 336.545C196.977 336.545 205.003 334.308 212.105 329.834C219.278 325.359 224.925 319.358 229.044 311.83C233.234 304.301 235.33 295.92 235.33 286.688C235.33 277.668 233.305 269.464 229.257 262.078C225.28 254.621 219.776 248.69 212.744 244.287C205.784 239.884 197.83 237.682 188.881 237.682C182.134 237.682 175.848 239.031 170.024 241.73C164.2 244.358 159.087 247.98 154.683 252.597C150.351 257.213 146.942 262.504 144.456 268.47C141.97 274.365 140.727 280.58 140.727 287.114C140.727 295.778 142.751 303.875 146.8 311.403C150.919 318.932 156.53 325.004 163.632 329.621C170.805 334.237 178.938 336.545 188.028 336.545Z" fill="white"/>
</svg>
