<svg width="386" height="500" viewBox="0 0 386 500" fill="none" xmlns="http://www.w3.org/2000/svg">
<rect width="386" height="500" rx="40" fill="#A43F3F"/>
<path d="M189.472 353.983C174.841 353.983 161.915 351.391 150.693 346.206C139.543 340.95 130.842 333.741 124.592 324.58C118.342 315.347 115.253 304.835 115.324 293.045C115.253 283.812 117.064 275.29 120.757 267.477C124.45 259.594 129.493 253.024 135.885 247.768C142.348 242.442 149.557 239.068 157.511 237.648V236.369C147.071 233.67 138.761 227.811 132.582 218.791C126.403 209.7 123.349 199.366 123.42 187.79C123.349 176.71 126.155 166.803 131.837 158.067C137.518 149.331 145.331 142.442 155.274 137.399C165.288 132.357 176.688 129.835 189.472 129.835C202.114 129.835 213.406 132.357 223.349 137.399C233.293 142.442 241.105 149.331 246.787 158.067C252.54 166.803 255.452 176.71 255.523 187.79C255.452 199.366 252.291 209.7 246.041 218.791C239.862 227.811 231.659 233.67 221.432 236.369V237.648C229.315 239.068 236.418 242.442 242.739 247.768C249.06 253.024 254.102 259.594 257.866 267.477C261.631 275.29 263.548 283.812 263.619 293.045C263.548 304.835 260.352 315.347 254.031 324.58C247.781 333.741 239.081 340.95 227.93 346.206C216.851 351.391 204.031 353.983 189.472 353.983ZM189.472 330.545C199.344 330.545 207.866 328.947 215.04 325.751C222.213 322.555 227.753 318.045 231.659 312.222C235.565 306.398 237.554 299.58 237.625 291.767C237.554 283.528 235.423 276.249 231.233 269.928C227.043 263.607 221.325 258.635 214.081 255.013C206.908 251.391 198.705 249.58 189.472 249.58C180.168 249.58 171.858 251.391 164.543 255.013C157.298 258.635 151.581 263.607 147.391 269.928C143.271 276.249 141.247 283.528 141.318 291.767C141.247 299.58 143.129 306.398 146.964 312.222C150.871 318.045 156.446 322.555 163.69 325.751C170.935 328.947 179.528 330.545 189.472 330.545ZM189.472 226.994C197.284 226.994 204.209 225.432 210.246 222.307C216.354 219.182 221.148 214.814 224.628 209.203C228.108 203.592 229.884 197.023 229.955 189.494C229.884 182.108 228.143 175.68 224.734 170.212C221.325 164.672 216.602 160.411 210.565 157.428C204.528 154.374 197.497 152.847 189.472 152.847C181.304 152.847 174.166 154.374 168.058 157.428C161.95 160.411 157.227 164.672 153.889 170.212C150.551 175.68 148.918 182.108 148.989 189.494C148.918 197.023 150.587 203.592 153.996 209.203C157.476 214.814 162.27 219.182 168.378 222.307C174.486 225.432 181.517 226.994 189.472 226.994Z" fill="white"/>
</svg>
